<svg xmlns="http://www.w3.org/2000/svg" width="600" height="840" viewBox="0 0 600 840">
  <defs>
    <linearGradient id="bg" x1="0" x2="1" y1="0" y2="1">
      <stop offset="0" stop-color="#4a1712"/>
      <stop offset=".52" stop-color="#201319"/>
      <stop offset="1" stop-color="#6f2a15"/>
    </linearGradient>
    <linearGradient id="panel" x1="0" x2="0" y1="0" y2="1">
      <stop offset="0" stop-color="#f4d997"/>
      <stop offset="1" stop-color="#9d6335"/>
    </linearGradient>
  </defs>
  <rect width="600" height="840" rx="42" fill="#120b0b"/>
  <rect x="28" y="28" width="544" height="784" rx="34" fill="url(#bg)" stroke="#d9aa55" stroke-width="10"/>
  <rect x="70" y="112" width="460" height="340" rx="22" fill="#1a1110" stroke="#c68b42" stroke-width="8"/>
  <path d="M120 390c48-72 82-110 132-114 40-3 70 17 104 10 44-9 70-48 120-96-18 88-50 152-100 194-72 62-166 66-256 6z" fill="#d65a31" opacity=".78"/>
  <circle cx="186" cy="214" r="58" fill="#f1c86b" opacity=".45"/>
  <path d="M118 306c75-82 163-116 270-102 38 5 74 18 108 38" fill="none" stroke="#f4d997" stroke-width="12" stroke-linecap="round" opacity=".52"/>
  <rect x="78" y="56" width="444" height="82" rx="18" fill="url(#panel)" stroke="#3c2116" stroke-width="5"/>
  <text x="300" y="111" font-family="Microsoft YaHei, PingFang SC, Arial, sans-serif" font-size="43" font-weight="800" text-anchor="middle" fill="#25120d">神圣</text>
  <rect x="92" y="486" width="416" height="210" rx="18" fill="#f1dfb6" stroke="#5a3523" stroke-width="6"/>
  <text x="300" y="565" font-family="Georgia, Times New Roman, serif" font-size="38" font-weight="700" text-anchor="middle" fill="#2a1915">Divinity</text>
  <text x="300" y="630" font-family="Arial, sans-serif" font-size="26" text-anchor="middle" fill="#68402a">Stance</text>
  <text x="300" y="748" font-family="Microsoft YaHei, PingFang SC, Arial, sans-serif" font-size="24" text-anchor="middle" fill="#f4d997">Slay the Spire</text>
</svg>